# xmcd
#
# Track frame offsets:
#	150
#	15416
#	25933
#	43674
#	61443
#	74226
#	92112
#	103854
#	124555
#	144165
#	160994
#	188112
#	205807
#	222164
#
# Disc length: 3268 seconds
#
# Revision: 0
# Processed by: cddbd v1.5.1PL2 Copyright (c) Steve Scherf et al.
# Submitted via: dBpowerAMP V4.0
#
DISCID=c80cc20e
DTITLE=Inlavables - Heladoscuro
DYEAR=1900
DGENRE=Blues
TTITLE0=01 - Gotta get soul
TTITLE1=02 - Paciencia
TTITLE2=03 - Una noche más
TTITLE3=04 - Quiero hacerte el amor por internet
TTITLE4=05 - Betty Boggie (and the Boggie woogie roll)
TTITLE5=06 - Tú eres yourself
TTITLE6=07 - You can lose
TTITLE7=08 - Steal no more
TTITLE8=09 - The Matt "Guitar" Murphy´s Blues
TTITLE9=10 - Heladoscuro
TTITLE10=11 - The Black Lord
TTITLE11=12 - Jenifarlopez
TTITLE12=13 - Un poquito más
TTITLE13=14 - Bésame mucho
EXTD=
EXTT0=
EXTT1=
EXTT2=
EXTT3=
EXTT4=
EXTT5=
EXTT6=
EXTT7=
EXTT8=
EXTT9=
EXTT10=
EXTT11=
EXTT12=
EXTT13=
PLAYORDER=
